<svg viewBox="0 0 24 24" fill="none" xmlns="http://www.w3.org/2000/svg">
<path fill-rule="evenodd" clipRule="evenodd" d="M21.2839 2.15981C21.1466 2.03858 20.9638 1.98219 20.782 2.00495L20.6648 2.01978C20.5896 2.02934 20.4809 2.04326 20.3463 2.06069C20.0773 2.09554 19.7048 2.14451 19.2912 2.20097C18.4678 2.31335 17.4677 2.4572 16.7976 2.57904C15.2013 2.86928 13.7088 3.51967 12.5634 4.79183C11.6483 5.80813 11.4148 7.18779 11.543 8.40088C11.6568 9.47927 12.0696 10.5515 12.6937 11.2457C12.3502 11.7868 12.0306 12.3513 11.7674 12.9181C11.0852 14.3876 10.4161 16.4948 10.0666 18.1929C10.0054 18.4904 9.94909 18.7771 9.89789 19.0479C9.66099 18.4935 9.40901 17.9273 9.19514 17.4995L9.19329 17.4959C9.6996 16.9573 10.0224 16.1185 10.1098 15.2908C10.2062 14.3786 10.0331 13.3207 9.32462 12.5338C8.47718 11.5927 7.45868 11.2748 6.35881 10.9315L6.22673 10.8903C5.6227 10.7012 4.85254 10.593 4.26288 10.5312C3.962 10.4997 3.69641 10.4791 3.50578 10.4664C3.41035 10.46 3.33335 10.4556 3.27975 10.4527L3.21741 10.4496L3.20048 10.4488L3.19438 10.4486C2.8472 10.434 2.55137 10.6997 2.52955 11.0465L2.52913 11.0533L2.52814 11.0702L2.52475 11.1326C2.52197 11.1862 2.51832 11.2632 2.51468 11.3588C2.5074 11.5497 2.50009 11.816 2.5 12.1185C2.49982 12.7114 2.52692 13.4886 2.65184 14.1091L2.67906 14.2447C2.90547 15.3745 3.11513 16.4206 3.96258 17.3618C4.67105 18.1487 5.7051 18.4314 6.62237 18.4309C7.12701 18.4307 7.6448 18.3448 8.10545 18.1775C8.3856 18.7513 8.73487 19.5668 9.02473 20.2666C9.17776 20.636 9.31229 20.9685 9.40856 21.2086C9.45668 21.3286 9.4952 21.4255 9.52163 21.4922L9.55191 21.5687L9.56205 21.5945C9.6682 21.8648 9.9435 22.0298 10.2319 21.9955C10.5203 21.9614 10.7492 21.7369 10.7892 21.4492L10.7896 21.4461L10.7911 21.4354L10.8228 21.2197C10.8453 21.0698 10.8791 20.8515 10.9237 20.5808C11.013 20.0388 11.1453 19.2875 11.3176 18.4504C11.6656 16.7598 12.3113 14.7798 12.9259 13.456C13.1521 12.9689 13.4278 12.4776 13.7283 11.9993C14.42 12.3309 15.2698 12.5079 16.1047 12.5083C17.3246 12.5089 18.6722 12.1325 19.5873 11.1162C20.733 9.8437 21.1754 8.47031 21.3444 6.68614C21.423 5.85649 21.4615 4.84149 21.4807 4.04266C21.4903 3.64138 21.4951 3.29107 21.4975 3.04094C21.4988 2.91583 21.4994 2.81566 21.4997 2.74659L21.4999 2.66702L21.5 2.64068V2.63862C21.5 2.45542 21.4213 2.28104 21.2839 2.15981ZM16.1053 11.2311C15.4862 11.2307 14.9096 11.11 14.4554 10.9247C14.7631 10.4988 15.0757 10.0966 15.3718 9.73291C15.7925 9.21618 16.1737 8.78481 16.4492 8.48317C16.5868 8.33245 16.6978 8.21442 16.7738 8.13463C16.8118 8.09474 16.841 8.06443 16.8605 8.0444L16.8821 8.02215L16.8872 8.01698L16.8884 8.01578C17.1361 7.76477 17.1335 7.36049 16.8825 7.11273C16.6315 6.86495 16.227 6.86772 15.9792 7.11872L15.9764 7.12157L15.9694 7.12867L15.9439 7.15488C15.9218 7.17762 15.8899 7.21077 15.849 7.25363C15.7674 7.33933 15.6502 7.46395 15.506 7.62187C15.2178 7.93751 14.8203 8.38737 14.3814 8.92645C14.0846 9.29093 13.7659 9.69974 13.4478 10.1384C13.1423 9.68414 12.8923 9.01612 12.8131 8.26673C12.7089 7.2801 12.9173 6.30767 13.5126 5.64647C14.4183 4.64061 15.6229 4.09081 17.0261 3.83568C17.6652 3.71948 18.6399 3.57896 19.4639 3.46648C19.7393 3.4289 19.9963 3.39465 20.2163 3.36574C20.2135 3.55602 20.2095 3.77499 20.2038 4.012C20.1848 4.80352 20.147 5.78217 20.0728 6.56571C19.9203 8.1757 19.5435 9.25598 18.6381 10.2615C18.0428 10.9227 17.0975 11.2315 16.1053 11.2311ZM8.83964 15.1567C8.79192 15.6085 8.6556 16.0086 8.4902 16.3023C8.29144 15.9975 8.08629 15.6995 7.89912 15.4348L7.15169 14.4155L7.10328 14.3521L7.09035 14.3353L7.08551 14.329C6.86972 14.0501 6.46863 13.9988 6.18964 14.2146C5.91065 14.4304 5.85942 14.8315 6.0752 15.1105L6.07868 15.115L6.09018 15.1299L6.13554 15.1893C6.17516 15.2413 6.23276 15.3174 6.30388 15.4126C6.44625 15.6032 6.64218 15.8695 6.85626 16.1722C7.05179 16.4488 7.25771 16.7491 7.45022 17.046C7.20418 17.1125 6.92221 17.1535 6.62173 17.1537C5.93217 17.154 5.30049 16.9389 4.91175 16.5072C4.303 15.8311 4.15486 15.1033 3.90396 13.857C3.80546 13.3678 3.77706 12.6968 3.77724 12.1189C3.77728 11.9945 3.77862 11.8766 3.7807 11.7683C3.88865 11.7775 4.00609 11.7885 4.12976 11.8015C4.70453 11.8617 5.36889 11.9601 5.84514 12.1092C7.05831 12.489 7.76669 12.7124 8.37544 13.3885C8.76418 13.8202 8.91207 14.4709 8.83964 15.1567Z" fill="currentColor"/>
</svg>
