<svg width="1120" height="373" viewBox="0 0 1120 373" fill="none" xmlns="http://www.w3.org/2000/svg">
<rect width="1120" height="373" fill="#EEF0F5"/>
<g clip-path="url(#clip0_5797_1210)">
<path d="M704.634 144.235C703.124 136.64 701.257 129.013 699.113 121.612C698.677 120.187 697.713 118.983 696.418 118.247C695.122 117.511 693.594 117.298 692.147 117.653C688.906 118.444 685.498 118.195 682.406 116.942C679.314 115.689 676.695 113.496 674.918 110.672C674.498 110.005 673.951 109.428 673.307 108.973C672.664 108.518 671.937 108.195 671.168 108.022C670.432 107.859 669.67 107.845 668.929 107.981C668.187 108.118 667.48 108.4 666.849 108.814C663.201 111.216 659.05 112.75 654.716 113.297C650.382 113.845 645.981 113.391 641.85 111.97C637.719 110.55 633.969 108.202 630.888 105.105C627.807 102.009 625.477 98.2467 624.077 94.1087C623.602 92.6881 622.598 91.5048 621.274 90.8039C619.95 90.103 618.407 89.9382 616.965 90.3437C614.49 90.9698 611.95 91.3054 609.398 91.3437C603.148 91.3437 586.388 84.5892 582.28 71.4997C581.593 69.2375 581.259 66.8828 581.289 64.5187C581.39 62.1487 581.901 59.8141 582.799 57.6187C583.075 56.9185 583.21 56.1708 583.195 55.4184C583.181 54.6661 583.018 53.924 582.716 53.2347C582.414 52.5455 581.979 51.9228 581.435 51.4023C580.892 50.8818 580.251 50.4738 579.549 50.2018C577.691 49.4555 575.993 48.3581 574.549 46.9698C572.849 45.291 571.555 43.246 570.766 40.9908C570.383 39.9056 569.683 38.9605 568.756 38.2778C567.83 37.5952 566.719 37.2066 565.57 37.1623C564.27 37.0978 562.647 37.0168 561.023 37.0168C515.734 36.4353 476.373 50.9948 450.116 77.9807C430.858 97.7602 422.852 119.605 419.831 127.833C414.779 141.954 411.709 156.708 410.708 171.673C409.282 188.308 410.046 205.057 412.981 221.493C416.076 238.093 421.259 254.236 428.408 269.535C428.895 270.585 440.635 295.471 456.679 306.523C459.42 308.385 462.382 309.899 465.496 311.032C467.839 311.832 470.262 312.374 472.722 312.648C483.634 313.973 491.022 309.303 497.55 305.182C502.05 302.338 506.319 299.656 511.5 298.719C520.188 297.297 525.95 301.951 532.61 307.251C539.27 312.551 547.03 318.789 558.592 317.981C568.611 317.27 573.807 311.856 578.37 307.073C582.429 302.856 586.245 298.864 593.228 297.846C607.178 295.796 619.371 307.541 631.193 318.853C640.936 328.144 650.092 337 659.658 337C661.315 337.003 662.96 336.735 664.53 336.208C672.18 333.671 676.79 325.252 685.948 308.511L686.37 307.751C690.591 300.015 694.076 291.9 696.779 283.512C708.292 248.673 709.867 214.412 709.997 201.309C710.187 182.15 708.39 163.023 704.634 144.235ZM641.013 293.951C633.153 284.369 623.363 272.427 606.458 270.456C604.841 270.27 603.214 270.178 601.586 270.181C599.458 270.185 597.332 270.325 595.221 270.601C582.621 272.217 575.556 278.277 569.889 283.125C565.229 287.116 561.559 290.251 556.054 290.625C549.673 291.045 545.613 287.393 540.482 282.82C535.009 277.97 528.79 272.348 518.414 271.314C508.996 270.377 499.188 273.528 489.38 280.574C486.056 282.679 482.297 284 478.387 284.436C475.976 284.503 473.577 284.097 471.323 283.24C470.851 283.039 470.39 282.812 469.943 282.561C467.943 281.351 466.177 279.791 464.731 277.956C460.135 272.494 420.431 222.577 437.272 153.141L437.532 152.058C440.682 139.018 447.275 111.854 470.658 89.8582C488.787 72.7793 512.059 62.1823 536.844 59.7207L537.656 59.6397C544.152 59.0257 552.271 58.2502 555.518 63.3397C556.766 65.3411 557.538 67.6021 557.775 69.9487C557.921 70.7082 558.068 71.5647 558.279 72.5827C559.479 78.7877 563.475 94.0747 574.517 101.944C581.239 106.794 590.252 108.521 601.651 110.767C602.983 111.026 603.519 111.107 603.843 111.155L604.443 111.285C610.663 112.901 613.243 116.876 616.249 121.497C618.749 125.359 621.575 129.739 626.836 132.906C635.636 138.206 649.57 139.37 659.897 135.54L660.904 135.168C662.776 134.275 664.84 133.858 666.912 133.956C672.628 134.441 676.979 142.715 678.425 145.429C681.037 150.559 683.022 155.984 684.336 161.589C686.727 171.376 688.114 181.382 688.476 191.451V192.679C688.476 193.924 688.606 195.087 688.557 196.202C688.154 211.537 686.705 226.827 684.222 241.966C679.122 270.81 668.73 304.826 656.243 305.763C651.194 306.313 646.469 300.544 641.013 293.951Z" fill="#A8ADB7"/>
<path d="M477.997 149.163C466.841 149.163 458.089 164.418 458.089 183.874C458.089 203.33 466.839 218.584 477.997 218.584C489.155 218.584 497.905 203.33 497.905 183.874C497.905 164.418 489.169 149.163 477.997 149.163Z" fill="#A8ADB7"/>
<path d="M597.169 149.163C586.011 149.163 577.261 164.418 577.261 183.874C577.261 203.33 586.011 218.584 597.169 218.584C608.327 218.584 617.077 203.33 617.077 183.874C617.077 164.418 608.341 149.163 597.169 149.163Z" fill="#A8ADB7"/>
</g>
<defs>
<clipPath id="clip0_5797_1210">
<rect width="300" height="300" fill="white" transform="translate(410 37)"/>
</clipPath>
</defs>
</svg>
