<svg xmlns="http://www.w3.org/2000/svg" version="1.1" xmlns:xlink="http://www.w3.org/1999/xlink" width="1000" height="1000"><g clip-path="url(#SvgjsClipPath1198)"><rect width="1000" height="1000" fill="#7b1fa2"></rect><g transform="matrix(1.6,0,0,1.6,100,100)"><svg xmlns="http://www.w3.org/2000/svg" version="1.1" xmlns:xlink="http://www.w3.org/1999/xlink" width="500" height="500"><svg width="500" height="500" viewBox="0 0 500 500" fill="none" xmlns="http://www.w3.org/2000/svg">
<rect width="500" height="500" fill="#7B1FA2"></rect>
<g clip-path="url(#clip0_5775_1151)">
<path d="M466.952 185.852C464.687 174.46 461.885 163.019 458.67 151.918C458.016 149.78 456.57 147.975 454.627 146.87C452.684 145.766 450.392 145.447 448.221 145.979C443.36 147.166 438.248 146.793 433.61 144.914C428.972 143.034 425.042 139.744 422.378 135.508C421.748 134.508 420.927 133.642 419.961 132.96C418.996 132.278 417.906 131.793 416.753 131.533C415.648 131.289 414.506 131.268 413.393 131.472C412.281 131.676 411.22 132.101 410.274 132.721C404.801 136.324 398.576 138.625 392.075 139.446C385.574 140.267 378.972 139.586 372.775 137.456C366.579 135.325 360.954 131.802 356.332 127.158C351.71 122.513 348.216 116.87 346.116 110.663C345.403 108.532 343.897 106.757 341.911 105.706C339.925 104.655 337.611 104.407 335.448 105.016C331.735 105.955 327.926 106.458 324.097 106.516C314.722 106.516 289.583 96.3838 283.42 76.7496C282.39 73.3562 281.889 69.8242 281.935 66.2781C282.085 62.7231 282.851 59.2211 284.2 55.9281C284.613 54.8778 284.815 53.7562 284.793 52.6276C284.772 51.4991 284.528 50.3859 284.075 49.3521C283.622 48.3183 282.969 47.3841 282.154 46.6034C281.338 45.8226 280.377 45.2107 279.325 44.8026C276.537 43.6832 273.99 42.0372 271.825 39.9546C269.274 37.4366 267.333 34.369 266.149 30.9861C265.575 29.3584 264.525 27.9407 263.135 26.9168C261.745 25.8928 260.08 25.3099 258.355 25.2434C256.405 25.1467 253.97 25.0252 251.535 25.0252C183.602 24.1529 124.56 45.9921 85.1741 86.4711C56.2873 116.14 44.2783 148.908 39.7476 161.249C32.1692 182.432 27.5637 204.562 26.0624 227.01C23.9228 251.961 25.0694 277.086 29.4727 301.739C34.1145 326.64 41.8895 350.853 52.6123 373.802C53.3428 375.377 70.9534 412.706 95.0185 429.285C99.1309 432.077 103.573 434.349 108.245 436.048C111.759 437.248 115.393 438.061 119.084 438.472C135.452 440.46 146.533 433.454 156.326 427.274C163.076 423.008 169.479 418.984 177.251 417.578C190.282 415.445 198.926 422.426 208.916 430.376C218.906 438.326 230.545 447.683 247.888 446.471C262.916 445.404 270.711 437.284 277.555 430.11C283.645 423.783 289.369 417.796 299.842 416.269C320.767 413.194 339.057 430.812 356.789 447.779C371.404 461.717 385.139 475 399.488 475C401.972 475.004 404.44 474.603 406.795 473.812C418.27 470.006 425.185 457.378 438.923 432.266L439.556 431.127C445.887 419.523 451.115 407.35 455.169 394.768C472.439 342.509 474.801 291.118 474.996 271.464C475.281 242.725 472.585 214.034 466.952 185.852ZM371.519 410.427C359.73 396.053 345.044 378.14 319.687 375.183C317.261 374.905 314.822 374.767 312.38 374.772C309.187 374.778 305.998 374.988 302.832 375.402C283.932 377.826 273.335 386.915 264.834 394.187C257.843 400.174 252.338 404.877 244.082 405.437C234.509 406.067 228.42 400.589 220.723 393.729C212.514 386.454 203.186 378.022 187.621 376.471C173.494 375.066 158.782 379.792 144.07 390.36C139.085 393.519 133.446 395.5 127.58 396.153C123.965 396.255 120.365 395.645 116.985 394.359C116.277 394.058 115.586 393.718 114.915 393.342C111.915 391.527 109.267 389.187 107.096 386.433C100.203 378.24 40.6469 303.366 65.9082 199.211L66.2982 197.587C71.0232 178.027 80.9126 137.281 115.987 104.287C143.18 78.669 178.09 62.7734 215.267 59.0811L216.485 58.9596C226.228 58.0386 238.406 56.8754 243.278 64.5096C245.15 67.5116 246.308 70.9031 246.663 74.4231C246.882 75.5624 247.102 76.8471 247.418 78.3741C249.218 87.6816 255.213 110.612 271.776 122.416C281.86 129.691 295.378 132.282 312.477 135.651C314.475 136.039 315.279 136.16 315.765 136.233L316.665 136.427C325.995 138.851 329.865 144.814 334.374 151.746C338.124 157.539 342.362 164.108 350.255 168.859C363.455 176.809 384.355 178.555 399.846 172.81L401.356 172.252C404.164 170.912 407.26 170.288 410.368 170.434C418.942 171.162 425.469 183.572 427.638 187.644C431.556 195.338 434.533 203.476 436.504 211.883C440.091 226.564 442.172 241.573 442.715 256.677V258.519C442.715 260.385 442.91 262.13 442.836 263.803C442.231 286.806 440.058 309.741 436.333 332.448C428.683 375.715 413.096 426.738 394.366 428.145C386.791 428.97 379.703 420.316 371.519 410.427Z" fill="white"></path>
<path d="M126.996 193.245C110.262 193.245 97.1343 216.126 97.1343 245.31C97.1343 274.494 110.259 297.376 126.996 297.376C143.733 297.376 156.858 274.494 156.858 245.31C156.858 216.126 143.754 193.245 126.996 193.245Z" fill="white"></path>
<path d="M305.754 193.245C289.018 193.245 275.893 216.126 275.893 245.31C275.893 274.494 289.018 297.376 305.754 297.376C322.491 297.376 335.616 274.494 335.616 245.31C335.616 216.126 322.512 193.245 305.754 193.245Z" fill="white"></path>
</g>
<defs>
<clipPath id="clip0_5775_1151">
<rect width="450" height="450" fill="white" transform="translate(25 25)"></rect>
</clipPath>
<clipPath id="SvgjsClipPath1198"><rect width="1000" height="1000" x="0" y="0" rx="250" ry="250"></rect></clipPath></defs>
</svg></svg></g></g></svg>